#N canvas -9 -9 1920 976 10;
#X msg 24 512 stop;
#X msg 93 455 open mymelody.wav \, 1;
#X obj 295 515 switch~;
#X obj 268 461 t f f;
#X msg 268 546 \$1 5;
#X obj 268 571 line~;
#X obj 295 490 pipe 8;
#X obj 268 363 tgl 15 0 empty pause PAUSE/RESUME 17 7 0 10 -258112
-1 -1 0 1;
#X obj 268 431 invert;
#X obj 93 529 readsf~ 2;
#X obj 92 588 *~;
#X obj 93 705 dac~ 1;
#X obj 118 661 dac~ 1;
#X obj 119 627 *~;
#X obj 95 320 loadbang;
#X msg 95 358 \; pd dsp 1 \; pause 0;
#N canvas 0 0 450 300 (subpatch) 0;
#X array soundData 1.03219e+007 float 4;
#X coords 0 1 1.03219e+007 -1 200 140 1;
#X restore 869 345 graph;
#X obj 607 398 soundfiler;
#X msg 607 355 read -resize mymelody.wav soundData;
#X floatatom 607 438 10 0 0 0 - - -;
#X obj 607 563 phasor~;
#X obj 607 606 *~;
#X obj 608 685 dac~;
#X obj 607 501 expr 44100/$f1;
#X msg 545 546 0;
#X obj 607 638 tabread4~ soundData;
#X obj 718 548 hsl 128 15 -0.5 0.5 0 0 empty empty empty -2 -8 0 10
-262144 -1 -1 6300 1;
#X floatatom 715 585 5 0 0 0 - - -;
#N canvas 0 0 450 300 (subpatch) 0;
#X array channelR 1.03219e+007 float 2;
#X coords 0 1 1.03219e+007 -1 200 140 1;
#X restore 1687 430 graph;
#N canvas 0 0 450 300 (subpatch) 0;
#X array channelL 1.03219e+007 float 2;
#X coords 0 1 1.03219e+007 -1 200 140 1;
#X restore 1686 262 graph;
#X obj 1253 187 bng 15 250 50 0 empty empty empty 17 7 0 10 -262144
-1 -1;
#X obj 1253 226 openpanel;
#X msg 1253 259 read -resize \$1 channelL channelR;
#X obj 1253 312 soundfiler;
#X floatatom 1294 335 12 0 0 0 - - -;
#X obj 1253 402 expr 44100/$f1;
#X obj 1294 367 s sampleSize;
#X floatatom 1271 442 12 0 0 0 - - -;
#X obj 1253 482 phasor~;
#X obj 1252 532 *~;
#X obj 1328 515 r sampleSize;
#X obj 1252 685 tabread4~ channelL;
#X obj 1298 745 tabread4~ channelR;
#X obj 1251 796 *~;
#X obj 1297 796 *~;
#X obj 1252 854 dac~ 1 2;
#X obj 1451 665 vsl 15 128 0 127 0 0 empty empty empty 0 -9 0 10 -262144
-1 -1 0 1;
#X obj 1493 548 snapshot~;
#X obj 1493 516 metro 50;
#X obj 1493 482 tgl 15 0 empty empty empty 17 7 0 10 -262144 -1 -1
0 1;
#X floatatom 1493 593 12 0 0 0 - - -;
#X obj 1493 634 /;
#X obj 1568 617 r sampleSize;
#X floatatom 1493 676 5 0 0 0 - - -;
#X obj 1663 692 hsl 195 15 0 1 0 0 empty empty empty -2 -8 0 10 -262144
-1 -1 0 1;
#X obj 1512 414 hsl 128 15 -1 1 0 0 empty empty empty -2 -8 0 10 -262144
-1 -1 0 1;
#X floatatom 1509 435 5 0 0 0 - - -;
#X msg 1509 369 0.00427246;
#X msg 1420 465 0;
#X connect 0 0 9 0;
#X connect 1 0 9 0;
#X connect 3 0 4 0;
#X connect 3 1 6 0;
#X connect 4 0 5 0;
#X connect 5 0 10 1;
#X connect 5 0 13 1;
#X connect 6 0 2 0;
#X connect 7 0 8 0;
#X connect 8 0 3 0;
#X connect 9 0 10 0;
#X connect 9 1 13 0;
#X connect 10 0 11 0;
#X connect 13 0 12 0;
#X connect 14 0 15 0;
#X connect 17 0 19 0;
#X connect 18 0 17 0;
#X connect 19 0 23 0;
#X connect 19 0 21 1;
#X connect 20 0 21 0;
#X connect 21 0 25 0;
#X connect 23 0 20 0;
#X connect 24 0 20 0;
#X connect 25 0 22 0;
#X connect 25 0 22 1;
#X connect 26 0 20 0;
#X connect 26 0 27 0;
#X connect 30 0 31 0;
#X connect 31 0 32 0;
#X connect 32 0 33 0;
#X connect 33 0 34 0;
#X connect 33 0 35 0;
#X connect 34 0 36 0;
#X connect 35 0 37 0;
#X connect 35 0 38 0;
#X connect 38 0 39 0;
#X connect 39 0 41 0;
#X connect 39 0 42 0;
#X connect 39 0 47 0;
#X connect 40 0 39 1;
#X connect 41 0 43 0;
#X connect 42 0 44 0;
#X connect 43 0 45 0;
#X connect 44 0 45 1;
#X connect 46 0 44 1;
#X connect 46 0 43 1;
#X connect 47 0 50 0;
#X connect 48 0 47 0;
#X connect 49 0 48 0;
#X connect 50 0 51 0;
#X connect 51 0 53 0;
#X connect 52 0 51 1;
#X connect 53 0 54 0;
#X connect 55 0 56 0;
#X connect 56 0 38 0;
#X connect 57 0 55 0;
#X connect 58 0 38 1;
